<svg width="1200" height="400" viewBox="0 0 1200 400" xmlns="http://www.w3.org/2000/svg">
  <defs>
    <linearGradient id="heroGradient" x1="0%" y1="0%" x2="100%" y2="100%">
      <stop offset="0%" style="stop-color:#667eea;stop-opacity:1" />
      <stop offset="100%" style="stop-color:#764ba2;stop-opacity:1" />
    </linearGradient>
    
    <pattern id="dots" x="0" y="0" width="100" height="100" patternUnits="userSpaceOnUse">
      <circle cx="25" cy="25" r="2" fill="white" opacity="0.1"/>
      <circle cx="75" cy="75" r="1.5" fill="white" opacity="0.08"/>
      <circle cx="50" cy="10" r="1" fill="white" opacity="0.06"/>
      <circle cx="10" cy="60" r="1" fill="white" opacity="0.06"/>
    </pattern>
    
    <filter id="glow">
      <feGaussianBlur stdDeviation="3" result="coloredBlur"/>
      <feMerge> 
        <feMergeNode in="coloredBlur"/>
        <feMergeNode in="SourceGraphic"/>
      </feMerge>
    </filter>
  </defs>
  
  <!-- 基本背景 -->
  <rect width="1200" height="400" fill="url(#heroGradient)"/>
  
  <!-- ドットパターン -->
  <rect width="1200" height="400" fill="url(#dots)"/>
  
  <!-- 抽象的な形状 -->
  <g opacity="0.1">
    <!-- 雲のような形状 -->
    <ellipse cx="200" cy="100" rx="120" ry="40" fill="white" transform="rotate(-15 200 100)"/>
    <ellipse cx="1000" cy="300" rx="150" ry="50" fill="white" transform="rotate(20 1000 300)"/>
    
    <!-- 山のような形状 -->
    <polygon points="0,400 150,250 300,400" fill="white" opacity="0.05"/>
    <polygon points="900,400 1050,200 1200,400" fill="white" opacity="0.05"/>
    
    <!-- 円形の装飾 -->
    <circle cx="100" cy="300" r="80" fill="none" stroke="white" stroke-width="2" opacity="0.3"/>
    <circle cx="1100" cy="100" r="60" fill="none" stroke="white" stroke-width="1.5" opacity="0.3"/>
  </g>
  
  <!-- 光る効果 -->
  <g filter="url(#glow)" opacity="0.3">
    <circle cx="600" cy="200" r="3" fill="white"/>
    <circle cx="400" cy="150" r="2" fill="white"/>
    <circle cx="800" cy="250" r="2.5" fill="white"/>
  </g>
</svg> 